<svg id="Layer_1" data-name="Layer 1" xmlns="http://www.w3.org/2000/svg" viewBox="0 0 247 212"><path d="M179.61,159.41a51.41,51.41,0,0,1-39.72,18.71c-3.6,0-7.11-2.37-10.5-3.08-3.4.71-6.91,3.08-10.5,3.08a51.5,51.5,0,0,1-51.5-51.5c0-28.43,9.39-51.5,47.81-51.5,4.86,0,10.79,4.38,14.19,5.09,3.39-.71,9.32-5.09,14.18-5.09,21.6,0,26.6,7.3,36,18.72a42,42,0,0,0-13.25,12.78,36.49,36.49,0,0,0,0,40A41.88,41.88,0,0,0,179.61,159.41Z"/><ellipse cx="146.65" cy="53.36" rx="27.56" ry="10.57" transform="translate(5.22 119.33) rotate(-45)"/><ellipse cx="146.65" cy="53.36" rx="27.56" ry="10.57" transform="translate(5.22 119.33) rotate(-45)"/></svg>