<svg id="Layer_1" data-name="Layer 1" xmlns="http://www.w3.org/2000/svg" viewBox="0 0 247 212"><defs><style>.cls-1{fill:red;}.cls-2{fill:#f1eb49;}.cls-3{fill:#375ba9;}.cls-4{fill:#0ba84b;}</style></defs><path class="cls-1" d="M218.58,97q.42,4.44.42,9t-.42,9a95.11,95.11,0,0,1-25.23,56.11l-11.88-13.74a77.21,77.21,0,0,0,19-42.37H149.65L141,97Z"/><path class="cls-2" d="M195.66,43.44,181.42,54.58A77.39,77.39,0,0,0,60.34,61.14L48.23,47.22a95.51,95.51,0,0,1,147.43-3.78Z"/><path class="cls-3" d="M181.47,157.37l11.88,13.74a95.49,95.49,0,0,1-123.29,14l12.63-13.3a77.34,77.34,0,0,0,98.78-14.48Z"/><path class="cls-4" d="M82.69,171.85l-12.63,13.3A95.51,95.51,0,0,1,48.23,47.22L60.34,61.14A77.4,77.4,0,0,0,82.69,171.85Z"/></svg>